<?xml version="1.0" encoding="utf-8"?>
<!-- Generator: Adobe Illustrator 22.0.1, SVG Export Plug-In . SVG Version: 6.00 Build 0)  -->
<svg version="1.1" id="Layer_1" xmlns="http://www.w3.org/2000/svg" xmlns:xlink="http://www.w3.org/1999/xlink" x="0px" y="0px"
	 viewBox="0 0 162 100" style="enable-background:new 0 0 162 100;" xml:space="preserve">
<style type="text/css">
	.st0{clip-path:url(#SVGID_2_);fill:#707070;}
</style>
<g>
	<defs>
		<rect id="SVGID_1_" width="162" height="100"/>
	</defs>
	<clipPath id="SVGID_2_">
		<use xlink:href="#SVGID_1_"  style="overflow:visible;"/>
	</clipPath>
	<path class="st0" d="M54.6,33.8c-0.1,1.1,0.7,2.1,1.8,2.2c0.1,0,0.3,0,0.4,0c1.4,0,2.4-0.9,3.8-2.2C62.7,31.7,72,22.6,72,17.5
		c0-3.6-3.5-5.4-6.7-5.4c-12.8,0-39,16.8-39,29.6c0,4.3,3.6,6.3,6.6,6.3c3.3,0,7.4-0.9,11.8-0.9c3.5,0,6.6,0.4,8.6,2.8
		c-7.4,2.5-14.3,6-20.7,10.4C19,70,13.9,78.6,13.9,85.2c0,5.4,4.1,9.7,10.6,9.7c12.2,0,35.1-22.1,35.1-41.5c0-0.7,0-1.3-0.2-2
		c2.6-0.8,4.9-1.5,6.9-2.1c2.4-0.6,4.8-1.1,7.2-1.4c0.9-0.1,1.6-0.8,1.6-1.7c0.1-0.7-0.4-1.3-1.1-1.4c-0.1,0-0.2,0-0.3,0
		c-2.8,0.2-5.6,0.7-8.4,1.4L58,48.4c-2-3-5.9-5.2-10.9-5.2c-4.7,0-9.9,0.7-12.7,0.7c-2.4,0-2.9-1.5-2.9-2.8
		c0-9.9,23.7-25.2,32.7-25.2c2.5,0,3.1,1.4,3.1,2.9c0,2.5-5.5,9.2-8.6,11C55.7,31.7,54.6,32.4,54.6,33.8z M55.3,55.3
		c0,15.2-20.8,35.6-30.4,35.6c-4.2,0-6.5-2.3-6.5-6.4c0-4.6,3.7-11.4,16.1-20.7C40.7,59.1,47.6,55.5,55,53
		C55.2,53.8,55.3,54.5,55.3,55.3z M70.2,36.2c-1.4-0.1-2.5,1-2.6,2.4c0,0,0,0.1,0,0.1c0,1.4,1.2,2.1,4.2,2.1c0.7,0,1.4,0,2.1-0.1
		c-4.8,9.5-9.6,20.4-9.6,26.2c0,2.5,1,4,2.5,4c1.1,0,2.1-0.9,2.1-2c0-0.9-0.6-1.4-0.6-2.7c0-5.2,5.5-17.3,10.9-27
		c2.5-1,5.1-1.6,7.7-1.8c1.5,0,2.8,0.2,2.8,1c0,0.5-0.2,0.9-0.2,1.5s0.2,0.9,1.1,0.9c1.3,0,3.1-2.1,3.1-3.9c0-2-1.8-3.2-5.3-3.2
		c-2.2,0.1-4.3,0.4-6.4,1.1c3.4-5.7,3.9-7.1,5.6-8.5c1.9-1.5,2.1-2.3,2.1-3.5S88.9,21,87.6,21s-2.4,1-4.1,3.4
		c-2.6,3.9-5,7.9-7.2,12.1c-1,0.2-2.1,0.4-3.1,0.4C72,36.9,71.7,36.2,70.2,36.2z M83.7,64.1c-1.6,0.1-2.9-1.2-3-2.8
		c0-0.1,0-0.1,0-0.2c0-1,0.1-1.6,1.9-2c6.2-1.4,14.9-7.2,14.9-12.3c0-1.9-2.2-3.5-4.1-3.5c-5.1,0-11.8,3.8-15.9,13.3
		C76.6,57,75.9,58,75.8,59c0,1,0.3,1.3,0.3,2.3c0,3.2,2.9,6.4,6,6.4c11.1,0,19.3-8.9,24.1-14.6c1.1-1.4,1.5-2,1.5-2.9
		c0.1-0.7-0.4-1.3-1.1-1.4c-0.1,0-0.2,0-0.3,0c-1,0-1.9,1-3.1,2.5C99.6,56.1,92.5,64.1,83.7,64.1z M92.2,47.2c0.8,0,1.2,0.2,1.2,1
		c0,2.1-7.9,7.7-11.4,7.8C83.5,53.6,89.1,47.2,92.2,47.2z M105.9,44.6c-1.2,0-2,0.9-2,2.5c0,1.5,0.1,1.6,0.1,2.7
		c0,4.1-2.7,10.9-2.7,13.1c0,2.2,1.6,4,3.8,4.1c6.9,0,17.7-18.3,17.7-27.3c0-6-2.2-6.2-3.4-6.2c-1.2,0.1-2,1.1-2,2.3
		c0,1.2,1.4,2.4,1.4,4.6c0,9.7-9.8,22.1-12.3,22.1c-0.5,0-0.6-0.4-0.6-0.7c0-1.2,2.6-9.5,2.6-13.2C108.5,46.1,106.8,44.6,105.9,44.6
		z M127.8,64.1c-1.6,0.1-2.9-1.2-3-2.8c0-0.1,0-0.1,0-0.2c0-1,0.1-1.6,1.9-2c6.2-1.4,14.9-7.2,14.9-12.3c0-1.9-2.2-3.5-4.1-3.5
		c-5.1,0-11.8,3.8-15.9,13.3c-0.9,0.4-1.6,1.4-1.7,2.4c0,1,0.3,1.3,0.3,2.3c0,3.2,2.9,6.4,6,6.4c11.1,0,19.3-8.9,24.1-14.6
		c1.1-1.4,1.5-2,1.5-2.9c0.1-0.7-0.4-1.3-1.1-1.4c-0.1,0-0.2,0-0.3,0c-1,0-1.9,1-3.1,2.5C143.7,56.1,136.6,64.1,127.8,64.1z
		 M136.3,47.2c0.8,0,1.2,0.2,1.2,1c0,2.1-7.9,7.7-11.4,7.8C127.6,53.6,133.2,47.2,136.3,47.2z"/>
</g>
</svg>
